<svg width="47" height="46" viewBox="0 0 47 46" fill="none" xmlns="http://www.w3.org/2000/svg">
<g clip-path="url(#clip0_3_191)">
<path d="M46.2656 23C46.2656 10.6914 36.0762 0.71875 23.5 0.71875C10.9238 0.71875 0.734375 10.6914 0.734375 23C0.734375 34.1209 9.05943 43.3388 19.9429 45.0117V29.4409H14.1597V23H19.9429V18.0909C19.9429 12.5071 23.3394 9.42281 28.5415 9.42281C31.0329 9.42281 33.638 9.85766 33.638 9.85766V15.3381H30.7666C27.9393 15.3381 27.0571 17.0559 27.0571 18.8178V23H33.3709L32.3612 29.4409H27.0571V45.0117C37.9406 43.3388 46.2656 34.1209 46.2656 23Z" fill="currentColor"/>
</g>
<defs>
<clipPath id="clip0_3_191">
<rect width="47" height="46" fill="white"/>
</clipPath>
</defs>
</svg>
