<svg width="50" height="57" viewBox="0 0 50 57" fill="none" xmlns="http://www.w3.org/2000/svg">
<g clip-path="url(#clip0_3_193)">
<path d="M25.0112 15.6972C17.913 15.6972 12.1875 21.4083 12.1875 28.4888C12.1875 35.5693 17.913 41.2804 25.0112 41.2804C32.1094 41.2804 37.8348 35.5693 37.8348 28.4888C37.8348 21.4083 32.1094 15.6972 25.0112 15.6972ZM25.0112 36.805C20.4241 36.805 16.6741 33.0755 16.6741 28.4888C16.6741 23.9021 20.413 20.1726 25.0112 20.1726C29.6094 20.1726 33.3482 23.9021 33.3482 28.4888C33.3482 33.0755 29.5982 36.805 25.0112 36.805ZM41.3505 15.174C41.3505 16.8328 40.0112 18.1576 38.3594 18.1576C36.6964 18.1576 35.3683 16.8216 35.3683 15.174C35.3683 13.5263 36.7076 12.1904 38.3594 12.1904C40.0112 12.1904 41.3505 13.5263 41.3505 15.174ZM49.8438 18.2021C49.654 14.2054 48.7388 10.6652 45.8036 7.74839C42.8795 4.83159 39.3304 3.9187 35.3237 3.71831C31.1942 3.48452 18.817 3.48452 14.6875 3.71831C10.692 3.90757 7.14287 4.82046 4.2076 7.73726C1.27233 10.6541 0.368312 14.1943 0.167419 18.191C-0.0669556 22.3101 -0.0669556 34.6564 0.167419 38.7755C0.357152 42.7722 1.27233 46.3125 4.2076 49.2293C7.14287 52.146 10.6808 53.0589 14.6875 53.2593C18.817 53.4931 31.1942 53.4931 35.3237 53.2593C39.3304 53.0701 42.8795 52.1572 45.8036 49.2293C48.7277 46.3125 49.6429 42.7722 49.8438 38.7755C50.0781 34.6564 50.0781 22.3212 49.8438 18.2021ZM44.5089 43.1953C43.6384 45.3773 41.9531 47.0584 39.7545 47.9378C36.4621 49.2404 28.6496 48.9398 25.0112 48.9398C21.3728 48.9398 13.5491 49.2293 10.2679 47.9378C8.08037 47.0695 6.3951 45.3884 5.5134 43.1953C4.2076 39.9111 4.50894 32.1181 4.50894 28.4888C4.50894 24.8595 4.21876 17.0554 5.5134 13.7824C6.38394 11.6003 8.0692 9.91929 10.2679 9.03979C13.5603 7.73726 21.3728 8.03784 25.0112 8.03784C28.6496 8.03784 36.4732 7.74839 39.7545 9.03979C41.942 9.90815 43.6272 11.5892 44.5089 13.7824C45.8147 17.0666 45.5134 24.8595 45.5134 28.4888C45.5134 32.1181 45.8147 39.9222 44.5089 43.1953Z" fill="currentColor"/>
</g>
<defs>
<clipPath id="clip0_3_193">
<rect width="50" height="57" fill="white"/>
</clipPath>
</defs>
</svg>
