<svg width="51" height="57" viewBox="0 0 51 57" fill="none" xmlns="http://www.w3.org/2000/svg">
<path d="M47.3571 3.5625H3.63147C1.6279 3.5625 0 5.17676 0 7.1584V49.8416C0 51.8232 1.6279 53.4375 3.63147 53.4375H47.3571C49.3607 53.4375 51 51.8232 51 49.8416V7.1584C51 5.17676 49.3607 3.5625 47.3571 3.5625ZM15.4138 46.3125H7.85491V22.5105H15.4252V46.3125H15.4138ZM11.6344 19.2598C9.2096 19.2598 7.25156 17.3338 7.25156 14.9736C7.25156 12.6135 9.2096 10.6875 11.6344 10.6875C14.0478 10.6875 16.0172 12.6135 16.0172 14.9736C16.0172 17.3449 14.0592 19.2598 11.6344 19.2598ZM43.7484 46.3125H36.1895V34.7344C36.1895 31.9734 36.1326 28.4221 32.2621 28.4221C28.3232 28.4221 27.7199 31.4279 27.7199 34.534V46.3125H20.1609V22.5105H27.4125V25.7613H27.515C28.5281 23.891 30.9984 21.9205 34.6754 21.9205C42.3254 21.9205 43.7484 26.8523 43.7484 33.2648V46.3125Z" fill="currentColor"/>
</svg>
